<svg width="40" height="40" viewBox="0 0 40 40" fill="none" xmlns="http://www.w3.org/2000/svg">
<path d="M5 9C5 7.11438 5 6.17157 5.58579 5.58579C6.17157 5 7.11438 5 9 5H31C32.8856 5 33.8284 5 34.4142 5.58579C35 6.17157 35 7.11438 35 9V31C35 32.8856 35 33.8284 34.4142 34.4142C33.8284 35 32.8856 35 31 35H9C7.11438 35 6.17157 35 5.58579 34.4142C5 33.8284 5 32.8856 5 31V9Z" stroke="#BE03FF"/>
<path d="M5 16.6667V17.6667C5 19.5523 5 20.4951 5.58579 21.0809C6.17157 21.6667 7.11438 21.6667 9 21.6667H11.8918C12.5875 21.6667 12.9354 21.6667 13.1973 21.8554C13.4592 22.0442 13.5692 22.3742 13.7892 23.0342L14.5442 25.2991C14.7642 25.9592 14.8742 26.2892 15.136 26.4779C15.3979 26.6667 15.7458 26.6667 16.4415 26.6667H23.5585C24.2542 26.6667 24.6021 26.6667 24.864 26.4779C25.1258 26.2892 25.2358 25.9592 25.4558 25.2991L26.2108 23.0342C26.4308 22.3742 26.5408 22.0442 26.8027 21.8554C27.0646 21.6667 27.4125 21.6667 28.1082 21.6667H31C32.8856 21.6667 33.8284 21.6667 34.4142 21.0809C35 20.4951 35 19.5523 35 17.6667V16.6667" stroke="#BE03FF"/>
</svg>
