<svg width="40" height="40" viewBox="0 0 40 40" fill="none" xmlns="http://www.w3.org/2000/svg">
<rect x="25" y="21.6667" width="10" height="6.66667" fill="#7E869E" fill-opacity="0.25"/>
<path d="M33.3333 11.6667V6.66669H9.16667C6.86548 6.66669 5 8.53217 5 10.8334C5 13.1345 6.86548 15 9.16667 15H30L33.3333 11.6667Z" fill="#7E869E" fill-opacity="0.25"/>
<path d="M5.00001 10.8333V10.8333C5.00001 9.74773 5.00001 9.20492 5.13886 8.76455C5.43319 7.83106 6.1644 7.09985 7.09789 6.80552C7.53827 6.66667 8.08107 6.66667 9.16667 6.66667L32.3333 6.66667C32.8047 6.66667 33.0404 6.66667 33.1869 6.81311C33.3333 6.95956 33.3333 7.19526 33.3333 7.66667V9C33.3333 11.8284 33.3333 13.2426 32.4547 14.1213C31.576 15 30.1618 15 27.3333 15H25M5.00001 10.8333V10.8333C5.00001 11.9189 5.00001 12.4617 5.13886 12.9021C5.43319 13.8356 6.1644 14.5668 7.09789 14.8612C7.53827 15 8.08107 15 9.16667 15L33 15C33.9428 15 34.4142 15 34.7071 15.2929C35 15.5858 35 16.0572 35 17L35 21.6667M5.00001 10.8333L5.00001 31C5.00001 32.8856 5.00001 33.8284 5.5858 34.4142C6.17158 35 7.11439 35 9.00001 35L33 35C33.9428 35 34.4142 35 34.7071 34.7071C35 34.4142 35 33.9428 35 33L35 28.3333M35 28.3333H27C26.0572 28.3333 25.5858 28.3333 25.2929 28.0404C25 27.7475 25 27.2761 25 26.3333V23.6667C25 22.7239 25 22.2525 25.2929 21.9596C25.5858 21.6667 26.0572 21.6667 27 21.6667H35M35 28.3333L35 21.6667" stroke="#BE03FF" stroke-width="1.2"/>
</svg>
